# xmcd
#
# Track frame offsets:
# 150
# 16598
# 43651
# 61053
# 77544
# 96486
# 116157
# 134100
# 144314
# 154530
# 166578
# 175023
# 184434
# 201201
# 214068
# 230914
# 248136
# 264986
# 278860
# 302059
#
# Disc length: 4233 seconds
#
#
# Revision: 0
# Processed by: cddbd v1.5.1PL2 Copyright (c) Steve Scherf et al.
# Submitted via: FreeRIP 2.942 
#
DISCID=17108714
DTITLE=Tradição O Melhor 2006 - Tradição - O Melhor 2006
DYEAR=2006
DGENRE=Gaucha
TTITLE0=Saudade Mandou Avisar
TTITLE1=Pout-pourri - Ajoelha e Chora/Pra Lá de Bagda/Mulher Boa
TTITLE2=Barquinho
TTITLE3=Campeão de Bilheteria
TTITLE4=Cheguei e Fui Dando Porrada
TTITLE5=Cor da Esperança
TTITLE6=Brasileira
TTITLE7=Capricha Gaiteiro
TTITLE8=Faz Isso Não Paixão
TTITLE9=Não Chora China Véia
TTITLE10=Sessenta Dias Apaixonado
TTITLE11=To Voltando Pra Ficar
TTITLE12=No Barulho da Sanfona
TTITLE13=Pé De Cedro
TTITLE14=Pirata
TTITLE15=Pra Sempre Minha Vida
TTITLE16=Rainha do Baile
TTITLE17=Ta Bão
TTITLE18=A Saudade Mandou Avisar
TTITLE19=Vou Beber de Novo Princesa
EXTD=
EXTT0=
EXTT1=
EXTT2=
EXTT3=
EXTT4=
EXTT5=
EXTT6=
EXTT7=
EXTT8=
EXTT9=
EXTT10=
EXTT11=
EXTT12=
EXTT13=
EXTT14=
EXTT15=
EXTT16=
EXTT17=
EXTT18=
EXTT19=
PLAYORDER=
